<svg xmlns="http://www.w3.org/2000/svg" width="54" height="54" viewBox="0 0 54 54"><g data-name="Group 8" transform="translate(-430 -324)"><circle data-name="Ellipse 1" cx="27" cy="27" r="27" transform="translate(430 324)"/><g data-name="Group 1" fill="none" stroke="#fff" stroke-width=".4"><path data-name="Line 6" d="m448.882 349.055 8.116-4.685"/><path data-name="Line 7" d="m448.882 350.227 8.116-4.685"/><path data-name="Line 8" d="m448.882 351.399 8.116-4.685"/><path data-name="Line 9" d="m448.882 352.571 8.116-4.686"/><path data-name="Line 10" d="m448.882 353.743 8.116-4.685"/><path data-name="Line 16" d="m448.882 360.776 8.116-4.685"/><path data-name="Line 17" d="m448.882 361.948 8.116-4.685"/><path data-name="Line 18" d="m448.882 363.12 8.116-4.685"/><path data-name="Line 19" d="m448.882 364.292 8.116-4.685"/><path data-name="Line 20" d="m448.882 365.464 8.116-4.685"/><path data-name="Line 21" d="m448.882 366.636 8.116-4.685"/><path data-name="Line 22" d="m448.882 367.808 8.116-4.685"/><path data-name="Line 11" d="m448.882 354.915 15.776-9.082"/><path data-name="Line 23" d="m448.882 347.882 15.776-9.082"/><path data-name="Line 24" d="m448.882 346.71 15.776-9.082"/><path data-name="Line 25" d="m448.882 345.538 15.776-9.082"/><path data-name="Line 26" d="m448.882 344.366 15.776-9.082"/><path data-name="Line 27" d="m448.882 343.194 15.776-9.082"/><path data-name="Line 28" d="m448.882 342.022 15.776-9.082"/><path data-name="Line 12" d="m448.882 356.087 15.776-9.082"/><path data-name="Line 13" d="m448.882 357.259 15.776-9.082"/><path data-name="Line 14" d="m448.882 358.431 15.776-9.082"/><path data-name="Line 15" d="m448.882 359.603 15.776-9.082"/></g></g></svg>